<svg xmlns="http://www.w3.org/2000/svg" width="88" height="88" viewBox="0 0 44 44">
  <defs>
    <style>
      .cls-1 {
        fill: #fff;
        fill-rule: evenodd;
      }
    </style>
  </defs>
  <path id="Forma_1" data-name="Forma 1" class="cls-1" d="M448.748,794.07l-7.82-7.82A0.86,0.86,0,0,0,440.32,786H414.8a2.58,2.58,0,0,0-2.578,2.578v1.638A11.37,11.37,0,0,0,405,800.789a0.858,0.858,0,0,0,.859.857h10.493a0.858,0.858,0,0,0,.859-0.857V790.3a0.859,0.859,0,0,0-.859-0.859,11.31,11.31,0,0,0-2.415.26v-1.119a0.861,0.861,0,0,1,.86-0.86h24.664v5.242a2.58,2.58,0,0,0,2.578,2.578h5.242v31.882a0.861,0.861,0,0,1-.859.861H414.8a0.861,0.861,0,0,1-.86-0.861v-7.361a0.859,0.859,0,0,0-1.718,0v7.361A2.58,2.58,0,0,0,414.8,830h31.625A2.58,2.58,0,0,0,449,827.419V794.677A0.858,0.858,0,0,0,448.748,794.07Zm-33.256-2.877v8.735h-8.735A9.648,9.648,0,0,1,415.492,791.193Zm26.547,2.625a0.86,0.86,0,0,1-.859-0.859v-4.027l4.887,4.886h-4.028Zm-28.353,22.51a0.861,0.861,0,1,0,.251.608A0.867,0.867,0,0,0,413.686,816.328Zm5.744-23.814a0.86,0.86,0,0,0-.86.86v9.632h-9.633a0.86,0.86,0,0,0-.859.859A11.352,11.352,0,1,0,419.43,792.514Zm0.859,1.756a9.6,9.6,0,0,1,5.314,2.207l-5.314,5.314V794.27ZM419.43,813.5a9.645,9.645,0,0,1-9.6-8.773h9.6a0.851,0.851,0,0,0,.607-0.252h0l6.782-6.782A9.629,9.629,0,0,1,419.43,813.5Zm23.217-.377a2.58,2.58,0,0,0-2.578,2.578,2.553,2.553,0,0,0,.2,1l-4.951,4.95a2.586,2.586,0,0,0-2.227-.012l-3.288-3.287a2.578,2.578,0,1,0-4.741.141l-3.153,3.154a2.579,2.579,0,1,0,1.216,1.214l3.136-3.136a2.574,2.574,0,0,0,2.415-.07l3.195,3.195a2.554,2.554,0,0,0-.257,1.122,2.578,2.578,0,1,0,4.911-1.1l4.905-4.9A2.578,2.578,0,1,0,442.647,813.121ZM420.8,824.836a0.859,0.859,0,1,1,.6-1.478l0.01,0.012a0.06,0.06,0,0,1,.012.011A0.857,0.857,0,0,1,420.8,824.836Zm6.6-6.56a0.859,0.859,0,1,1,.859-0.858A0.86,0.86,0,0,1,427.407,818.276Zm6.789,6.556a0.859,0.859,0,1,1,.859-0.857A0.858,0.858,0,0,1,434.2,824.832Zm8.451-8.274a0.859,0.859,0,1,1,.859-0.859A0.861,0.861,0,0,1,442.647,816.558Zm-4.3-10.364h-4.535a0.859,0.859,0,1,0,0,1.718h4.535A0.859,0.859,0,1,0,438.351,806.194Zm4.521,0.25a0.86,0.86,0,0,0-1.467.609,0.86,0.86,0,0,0,1.719,0A0.873,0.873,0,0,0,442.872,806.444Zm1.441-8.5h-10.5a0.859,0.859,0,1,0,0,1.718h10.5A0.859,0.859,0,1,0,444.313,797.944Zm0,4.125h-10.5a0.86,0.86,0,1,0,0,1.719h10.5A0.86,0.86,0,1,0,444.313,802.069Z" transform="translate(-405 -786)"/>
</svg>
