<svg xmlns="http://www.w3.org/2000/svg" width="86" height="88" viewBox="0 0 43 44">
  <defs>
    <style>
      .cls-1 {
        fill: #3763eb;
        fill-rule: evenodd;
      }
    </style>
  </defs>
  <path id="Forma_1" data-name="Forma 1" class="cls-1" d="M1246.89,799.846a3.715,3.715,0,0,0-5.34,0c-0.46.464-3.35,3.428-3.8,3.881V793.512a3.9,3.9,0,0,0-1.1-2.736l-3.57-3.646a3.7,3.7,0,0,0-2.67-1.131h-21.63a3.831,3.831,0,0,0-3.78,3.867v36.266a3.83,3.83,0,0,0,3.78,3.865h25.2a3.822,3.822,0,0,0,3.77-3.865V814.67l9.14-9.356A3.922,3.922,0,0,0,1246.89,799.846Zm-16.69-11.269a1.346,1.346,0,0,1,1.1.377l3.57,3.646a1.43,1.43,0,0,1,.37,1.133h-5.04v-5.156Zm5.04,37.555a1.278,1.278,0,0,1-1.26,1.287h-25.2a1.272,1.272,0,0,1-1.26-1.287V789.866a1.273,1.273,0,0,1,1.26-1.289h18.9v6.445a1.271,1.271,0,0,0,1.26,1.288h6.3v10l-3.72,3.806-1.78,1.822a1.265,1.265,0,0,0-.31.5l-1.78,5.47a1.311,1.311,0,0,0,.31,1.32,1.237,1.237,0,0,0,1.29.311l5.34-1.822a1.242,1.242,0,0,0,.49-0.312l0.16-.157v8.883h0Zm-2.83-13.284,1.78,1.823-0.68.7-2.67.911,0.89-2.734Zm3.56,0-1.78-1.823c0.95-.972,5.16-5.288,6.06-6.2l1.78,1.822Zm9.14-9.356-1.3,1.33L1242.03,803l1.3-1.33a1.238,1.238,0,0,1,1.78,0A1.314,1.314,0,0,1,1245.11,803.492Zm-16.17-4.6H1211.3a1.29,1.29,0,0,0,0,2.579h17.64A1.29,1.29,0,0,0,1228.94,798.888Zm-5.04,5.158h-12.6a1.289,1.289,0,0,0,0,2.578h12.6A1.289,1.289,0,0,0,1223.9,804.046Zm0,5.156h-12.6a1.289,1.289,0,0,0,0,2.578h12.6A1.289,1.289,0,0,0,1223.9,809.2Zm0,5.156h-12.6a1.289,1.289,0,0,0,0,2.578h12.6A1.289,1.289,0,0,0,1223.9,814.358Zm5.04,7.906h-7.56a1.289,1.289,0,0,0,0,2.577h7.56A1.289,1.289,0,0,0,1228.94,822.264Z" transform="translate(-1205 -786)"/>
</svg>
