<svg xmlns="http://www.w3.org/2000/svg" width="132" height="140" viewBox="0 0 66 70">
  <defs>
    <style>
      .cls-1 {
        fill: #fff;
        fill-rule: evenodd;
      }
    </style>
  </defs>
  <path id="Icon" class="cls-1" d="M841.638,2623.26h-2.986v-43.54a3.671,3.671,0,0,0-3.659-3.67h-6.674a3.672,3.672,0,0,0-3.66,3.67v43.54h-7.582v-23.81a3.674,3.674,0,0,0-3.659-3.68h-6.675a3.674,3.674,0,0,0-3.659,3.68v23.81H795.5v-12.33a3.674,3.674,0,0,0-3.66-3.68h-6.674a3.674,3.674,0,0,0-3.66,3.68v12.33h-3.147a1.37,1.37,0,0,0,0,2.74h63.277A1.37,1.37,0,0,0,841.638,2623.26Zm-48.859,0h-8.548v-12.33a0.938,0.938,0,0,1,.937-0.94h6.674a0.938,0.938,0,0,1,.937.94v12.33h0Zm21.575,0h-8.548v-23.81a0.939,0.939,0,0,1,.937-0.94h6.674a0.938,0.938,0,0,1,.937.94v23.81Zm21.576,0h-8.548v-43.54a0.938,0.938,0,0,1,.937-0.94h6.674a0.939,0.939,0,0,1,.937.94v43.54h0Zm2.719-65.83a1.363,1.363,0,0,0-1.428-1.43h-8.3a1.365,1.365,0,0,0,0,2.73H834l-13.458,13.52-5.075-5.1a1.359,1.359,0,0,0-1.926,0l-24.473,24.58a1.366,1.366,0,0,0,0,1.93,1.358,1.358,0,0,0,1.925,0l23.511-23.61,5.075,5.1a1.365,1.365,0,0,0,1.926,0l14.421-14.49v4.63a1.361,1.361,0,0,0,2.722,0v-7.79C838.652,2557.48,838.65,2557.46,838.649,2557.43Zm-53.2,38.67a1.365,1.365,0,1,1-1.361,1.36A1.361,1.361,0,0,1,785.446,2596.1Z" transform="translate(-777 -2556)"/>
</svg>
